<svg width="20" height="20" viewBox="0 0 20 20" fill="none" xmlns="http://www.w3.org/2000/svg">
<path fill-rule="evenodd" clip-rule="evenodd" d="M15.258 1.01272C11.7634 0.625317 8.23663 0.625317 4.742 1.01272C2.73 1.23772 1.105 2.82272 0.869002 4.84472C0.454402 8.38931 0.454402 11.9701 0.869002 15.5147C1.105 17.5367 2.729 19.1217 4.742 19.3467C8.23665 19.7337 11.7633 19.7337 15.258 19.3467C17.27 19.1217 18.895 17.5367 19.131 15.5147C19.5457 11.9701 19.5457 8.3893 19.131 4.84472C18.895 2.82272 17.271 1.23772 15.258 1.01272ZM4.908 2.50272C8.29231 2.12759 11.7077 2.12759 15.092 2.50272C16.422 2.65272 17.487 3.70172 17.642 5.01972C18.043 8.44804 18.043 11.9114 17.642 15.3397C17.5618 15.9848 17.2665 16.5839 16.8038 17.0405C16.3411 17.497 15.7381 17.7842 15.092 17.8557C11.7077 18.2309 8.2923 18.2309 4.908 17.8557C4.26194 17.7842 3.65885 17.497 3.19616 17.0405C2.73346 16.5839 2.43818 15.9848 2.358 15.3397C1.95705 11.9114 1.95705 8.44804 2.358 5.01972C2.43818 4.37468 2.73346 3.7755 3.19616 3.31897C3.65885 2.86244 4.26194 2.57423 4.908 2.50272Z" fill="white"/>
</svg>
