<svg width="22" height="16" viewBox="0 0 22 16" fill="none" xmlns="http://www.w3.org/2000/svg">
<path d="M20 0.679688H2C1.60218 0.679688 1.22064 0.837723 0.93934 1.11903C0.658035 1.40033 0.5 1.78186 0.5 2.17969V14.1797C0.5 14.5775 0.658035 14.959 0.93934 15.2403C1.22064 15.5217 1.60218 15.6797 2 15.6797H20C20.3978 15.6797 20.7794 15.5217 21.0607 15.2403C21.342 14.959 21.5 14.5775 21.5 14.1797V2.17969C21.5 1.78186 21.342 1.40033 21.0607 1.11903C20.7794 0.837723 20.3978 0.679688 20 0.679688ZM18.35 2.17969L11 7.26469L3.65 2.17969H18.35ZM2 14.1797V2.86219L10.5725 8.79469C10.698 8.88178 10.8472 8.92845 11 8.92845C11.1528 8.92845 11.302 8.88178 11.4275 8.79469L20 2.86219V14.1797H2Z" fill="#FAF9F5"/>
</svg>
